# xmcd
#
# Track frame offsets:
# 150
# 14200
# 25320
# 36180
# 50845
# 63035
# 74397
# 83912
# 94975
# 109587
# 118780
# 134180
# 150577
# 162095
# 176495
# 187337
# 202337
# 216112
# 231535
# 245140
#
# Disc length: 3497 seconds
#
#
# Revision: 0
# Processed by: cddbd v1.5.2PL0 Copyright (c) Steve Scherf et al.
# Submitted via: FreeRIP 2.90 
#
DISCID=390da714
DTITLE=The Dean Brothers - A Chance To Dance
DYEAR=1997
DGENRE=Country
TTITLE0=I Like It I Love It
TTITLE1=Sold
TTITLE2=Waltz Across Texas
TTITLE3=Cannibals
TTITLE4=I Should Have Ask Her Faster
TTITLE5=Highway Patrol
TTITLE6=The Big One
TTITLE7=Tall Tall Trees
TTITLE8=Queen Of Memphis
TTITLE9=All Shook Up
TTITLE10=Here In The Real World
TTITLE11=Black Coffee
TTITLE12=Cherokee Boogie
TTITLE13=Trashy Woman
TTITLE14=Chatahoochee
TTITLE15=Cowboy Rides Away
TTITLE16=Watermelon Crawl
TTITLE17=Baby Likes To Rock It
TTITLE18=Twistin' The Night Away
TTITLE19=If Tomorrow Never Comes
EXTD=
EXTT0=
EXTT1=
EXTT2=
EXTT3=
EXTT4=
EXTT5=
EXTT6=
EXTT7=
EXTT8=
EXTT9=
EXTT10=
EXTT11=
EXTT12=
EXTT13=
EXTT14=
EXTT15=
EXTT16=
EXTT17=
EXTT18=
EXTT19=
PLAYORDER=
